<svg width="21" height="20" viewBox="0 0 21 20" fill="none" xmlns="http://www.w3.org/2000/svg">
<path d="M14.0986 4.70795L11.5153 2.70795C11.182 2.37462 10.432 2.20795 9.93197 2.20795H6.7653C5.7653 2.20795 4.68197 2.95795 4.43197 3.95795L2.43197 10.0413C2.0153 11.208 2.7653 12.208 4.0153 12.208H7.34863C7.84863 12.208 8.2653 12.6246 8.18197 13.208L7.7653 15.8746C7.59863 16.6246 8.09863 17.458 8.84863 17.708C9.5153 17.958 10.3486 17.6246 10.682 17.1246L14.0986 12.0413" stroke="#E32A2F" stroke-width="1.5" stroke-miterlimit="10"/>
<path d="M18.3486 4.70703V12.8737C18.3486 14.0404 17.8486 14.457 16.682 14.457H15.8486C14.682 14.457 14.182 14.0404 14.182 12.8737V4.70703C14.182 3.54036 14.682 3.1237 15.8486 3.1237H16.682C17.8486 3.1237 18.3486 3.54036 18.3486 4.70703Z" stroke="#E32A2F" stroke-width="1.5" stroke-linecap="round" stroke-linejoin="round"/>
</svg>
