<svg width="22" height="22" viewBox="0 0 22 22" fill="none" xmlns="http://www.w3.org/2000/svg">
<g id="Artboard">
<path id="Oval" d="M11 22C17.0751 22 22 17.0751 22 11C22 4.92487 17.0751 0 11 0C4.92487 0 0 4.92487 0 11C0 17.0751 4.92487 22 11 22Z" fill="url(#paint0_linear_1016_3946)"/>
<path id="Path-3" fill-rule="evenodd" clip-rule="evenodd" d="M4.97919 10.883C8.18591 9.48585 10.3242 8.56478 11.3941 8.11979C14.4489 6.84921 15.0837 6.62847 15.4974 6.62117C15.5884 6.61958 15.7919 6.64214 15.9237 6.74909C16.1192 6.90773 16.1203 7.25208 16.0986 7.47999C15.933 9.21936 15.2168 13.4403 14.8523 15.3884C14.6981 16.2127 14.3945 16.4892 14.1006 16.5162C13.4618 16.575 12.9768 16.094 12.358 15.6885C11.3899 15.0538 10.843 14.6588 9.9032 14.0395C8.81716 13.3238 9.52121 12.9305 10.1401 12.2876C10.3021 12.1194 13.1166 9.55937 13.1711 9.32713C13.1779 9.29808 13.1842 9.1898 13.1199 9.13265C13.0556 9.0755 12.9607 9.09501 12.8922 9.11056C12.7951 9.13261 11.2485 10.1549 8.25234 12.1773C7.81333 12.4788 7.41569 12.6257 7.05944 12.618C6.66666 12.6095 5.91119 12.3959 5.34954 12.2133C4.66067 11.9894 4.11316 11.871 4.16086 11.4907C4.18569 11.2926 4.45846 11.09 4.97919 10.883Z" fill="white"/>
</g>
<defs>
<linearGradient id="paint0_linear_1016_3946" x1="11" y1="0" x2="11" y2="21.8281" gradientUnits="userSpaceOnUse">
<stop stop-color="#2AABEE"/>
<stop offset="1" stop-color="#229ED9"/>
</linearGradient>
</defs>
</svg>
