<svg width="24" height="24" viewBox="0 0 24 24" fill="none" xmlns="http://www.w3.org/2000/svg">
<mask id="mask0_972_1543" style="mask-type:alpha" maskUnits="userSpaceOnUse" x="0" y="0" width="24" height="24">
<rect x="24" width="24" height="24" transform="rotate(90 24 0)" fill="#D9D9D9"/>
</mask>
<g mask="url(#mask0_972_1543)">
<path d="M19.1996 11.9998L15.2996 8.0998C15.1163 7.91647 15.0246 7.68314 15.0246 7.3998C15.0246 7.11647 15.1163 6.88314 15.2996 6.6998C15.4829 6.51647 15.7163 6.4248 15.9996 6.4248C16.2829 6.4248 16.5163 6.51647 16.6996 6.6998L21.2996 11.2998C21.4996 11.4998 21.5996 11.7331 21.5996 11.9998C21.5996 12.2665 21.4996 12.4998 21.2996 12.6998L16.6996 17.2998C16.5163 17.4831 16.2829 17.5748 15.9996 17.5748C15.7163 17.5748 15.4829 17.4831 15.2996 17.2998C15.1163 17.1165 15.0246 16.8831 15.0246 16.5998C15.0246 16.3165 15.1163 16.0831 15.2996 15.8998L19.1996 11.9998Z" fill="white"/>
</g>
</svg>
