<svg width="40" height="40" viewBox="0 0 40 40" fill="none" xmlns="http://www.w3.org/2000/svg">
<g id="fi_17877167">
<path id="Vector" d="M17.6929 7.62721V22.5907L12.7374 32.4978C12.3962 33.1027 11.768 33.4905 11.0739 33.5254H6.75432C6.11835 33.5254 5.82753 33.0717 6.11835 32.4978L11.0428 22.5907H2.15162C1.51574 22.5907 1 22.075 1 21.439V7.62721C1 6.99131 1.51574 6.47559 2.15162 6.47559H16.5413C17.1771 6.47559 17.6929 6.99131 17.6929 7.62721Z" fill="#E32A2F"/>
<path id="Vector_2" d="M38.9995 7.62721V22.5907L34.0479 32.4978C33.7028 33.1027 33.0746 33.4905 32.3805 33.5254H28.0648C27.425 33.5254 27.1381 33.0717 27.425 32.4978L32.3533 22.5907H23.4583C22.8224 22.5907 22.3066 22.075 22.3066 21.439V7.62721C22.3066 6.99131 22.8224 6.47559 23.4583 6.47559H37.8479C38.4838 6.47559 38.9995 6.99131 38.9995 7.62721Z" fill="#E32A2F"/>
</g>
</svg>
