<svg width="34" height="34" viewBox="0 0 34 34" fill="none" xmlns="http://www.w3.org/2000/svg">
<g id="vuesax/linear/book">
<g id="book">
<path id="Vector" d="M31.1667 23.715V6.61582C31.1667 4.91582 29.7783 3.65498 28.0925 3.79665H28.0075C25.0325 4.05165 20.5133 5.56748 17.9917 7.15415L17.7508 7.30998C17.34 7.56498 16.66 7.56498 16.2492 7.30998L15.895 7.09748C13.3733 5.52498 8.86833 4.02332 5.89333 3.78248C4.20749 3.64082 2.83333 4.91582 2.83333 6.60165V23.715C2.83333 25.075 3.93833 26.35 5.29833 26.52L5.70916 26.5766C8.78333 26.9875 13.5292 28.5458 16.2492 30.0333L16.3058 30.0616C16.6883 30.2741 17.2975 30.2741 17.6658 30.0616C20.3858 28.56 25.1458 26.9875 28.2342 26.5766L28.7017 26.52C30.0617 26.35 31.1667 25.075 31.1667 23.715Z" stroke="white" stroke-width="2.125" stroke-linecap="round" stroke-linejoin="round"/>
<path id="Vector_2" d="M17 7.77747V29.0275" stroke="white" stroke-width="2.125" stroke-linecap="round" stroke-linejoin="round"/>
<path id="Vector_3" d="M10.9792 12.0275H7.79167" stroke="white" stroke-width="2.125" stroke-linecap="round" stroke-linejoin="round"/>
<path id="Vector_4" d="M12.0417 16.2775H7.79167" stroke="white" stroke-width="2.125" stroke-linecap="round" stroke-linejoin="round"/>
</g>
</g>
</svg>
