<svg width="24" height="24" viewBox="0 0 24 24" fill="none" xmlns="http://www.w3.org/2000/svg">
<path d="M21.9003 4.77572C20.4245 8.45572 16.7253 13.4582 13.6299 15.9403L11.742 17.4545C11.5024 17.627 11.2628 17.7803 10.9945 17.8857C10.9945 17.7132 10.9849 17.5215 10.9561 17.3395C10.8507 16.5345 10.4866 15.787 9.84448 15.1449C9.19281 14.4932 8.3974 14.1099 7.58281 14.0045C7.39115 13.9949 7.19948 13.9757 7.00781 13.9949C7.11323 13.6978 7.27615 13.4199 7.4774 13.1899L8.9724 11.302C11.4449 8.20655 16.4666 4.48822 20.137 3.02197C20.7024 2.81113 21.2486 2.96447 21.5936 3.31905C21.9578 3.67363 22.1303 4.21988 21.9003 4.77572Z" stroke="#E32A2F" stroke-width="1.8" stroke-linecap="round" stroke-linejoin="round"/>
<path d="M10.9954 17.8856C10.9954 18.9398 10.5929 19.9461 9.83581 20.7127C9.25123 21.2973 8.45581 21.6998 7.50706 21.8244L5.14956 22.0831C3.86539 22.2269 2.76331 21.1344 2.91664 19.8311L3.17539 17.4736C3.40539 15.3748 5.15914 14.0331 7.01831 13.9948C7.20998 13.9852 7.41123 13.9948 7.59331 14.0044C8.40789 14.1098 9.20331 14.4836 9.85498 15.1448C10.4971 15.7869 10.8612 16.5344 10.9666 17.3394C10.9762 17.5215 10.9954 17.7036 10.9954 17.8856Z" stroke="#E32A2F" stroke-width="1.8" stroke-linecap="round" stroke-linejoin="round"/>
<path d="M14.6462 14.8673C14.6462 12.3661 12.6145 10.3344 10.1133 10.3344" stroke="#E32A2F" stroke-width="1.8" stroke-linecap="round" stroke-linejoin="round"/>
</svg>
