<svg width="46" height="46" viewBox="0 0 46 46" fill="none" xmlns="http://www.w3.org/2000/svg">
<path d="M23.9583 42.166H7.81992C5.59659 42.166 3.77576 40.3835 3.77576 38.1985V9.7552C3.77576 4.73353 7.51326 2.4527 12.0941 4.6952L20.6041 8.87353C22.4441 9.77437 23.9583 12.1702 23.9583 14.2019V42.166Z" stroke="#E32A2F" stroke-width="2" stroke-linecap="round" stroke-linejoin="round"/>
<path d="M42.1091 28.866V36.111C42.1091 40.251 40.1924 42.1677 36.0524 42.1677H23.9583V19.9727L24.8591 20.1643L33.4841 22.1002L37.3749 22.9627C39.9049 23.5185 41.9749 24.8218 42.0899 28.5018C42.1091 28.6168 42.1091 28.7318 42.1091 28.866Z" stroke="#E32A2F" stroke-width="2" stroke-linecap="round" stroke-linejoin="round"/>
<path d="M10.5416 17.25H17.1925" stroke="#E32A2F" stroke-width="2" stroke-linecap="round" stroke-linejoin="round"/>
<path d="M10.5416 24.916H17.1925" stroke="#E32A2F" stroke-width="2" stroke-linecap="round" stroke-linejoin="round"/>
<path d="M33.4841 22.0999V28.2716C33.4841 30.6482 31.5483 32.5841 29.1716 32.5841C26.795 32.5841 24.8591 30.6482 24.8591 28.2716V20.1641L33.4841 22.0999Z" stroke="#E32A2F" stroke-width="2" stroke-linecap="round" stroke-linejoin="round"/>
<path d="M42.09 28.5013C41.975 30.7629 40.0966 32.5838 37.7966 32.5838C35.42 32.5838 33.4841 30.6479 33.4841 28.2713V22.0996L37.375 22.9621C39.905 23.5179 41.975 24.8213 42.09 28.5013Z" stroke="#E32A2F" stroke-width="2" stroke-linecap="round" stroke-linejoin="round"/>
</svg>
