<svg width="22" height="22" viewBox="0 0 22 22" fill="none" xmlns="http://www.w3.org/2000/svg">
<g id="vuesax/linear/call-calling">
<g id="call-calling">
<g id="call-calling_2">
<path id="Vector" d="M19.1423 16.2001C19.1423 16.4911 19.0777 16.7902 18.9403 17.0812C18.8028 17.3722 18.625 17.647 18.3906 17.9057C17.9945 18.3422 17.558 18.6575 17.0649 18.8595C16.5799 19.0616 16.0545 19.1667 15.4887 19.1667C14.6642 19.1667 13.7831 18.9727 12.8535 18.5766C11.9239 18.1805 10.9943 17.647 10.0728 16.9761C9.14323 16.2971 8.26214 15.5454 7.42147 14.7128C6.58889 13.8721 5.83714 12.991 5.16622 12.0695C4.50338 11.148 3.96988 10.2265 3.58188 9.3131C3.19388 8.3916 2.99988 7.51051 2.99988 6.66984C2.99988 6.12017 3.09688 5.59476 3.29088 5.10975C3.48488 4.61667 3.79205 4.164 4.22046 3.75984C4.7378 3.25058 5.30363 3 5.9018 3C6.12814 3 6.35447 3.0485 6.55655 3.1455C6.76672 3.2425 6.95264 3.388 7.09814 3.59817L8.97348 6.24142C9.11898 6.44351 9.22406 6.62943 9.29681 6.80726C9.36956 6.97701 9.40998 7.14676 9.40998 7.30034C9.40998 7.49434 9.3534 7.68834 9.24023 7.87426C9.13514 8.06018 8.98156 8.25418 8.78756 8.44818L8.17323 9.08676C8.08431 9.17568 8.04389 9.28076 8.04389 9.4101C8.04389 9.47477 8.05198 9.53135 8.06814 9.59601C8.09239 9.66068 8.11664 9.70918 8.13281 9.75768C8.27831 10.0244 8.52889 10.372 8.88456 10.7924C9.24831 11.2127 9.63631 11.6411 10.0566 12.0695C10.4931 12.4979 10.9135 12.894 11.3419 13.2578C11.7622 13.6134 12.1098 13.8559 12.3847 14.0014C12.4251 14.0176 12.4736 14.0419 12.5302 14.0661C12.5948 14.0904 12.6595 14.0984 12.7322 14.0984C12.8697 14.0984 12.9747 14.0499 13.0637 13.961L13.678 13.3548C13.8801 13.1527 14.0741 12.9991 14.26 12.9021C14.4459 12.7889 14.6318 12.7324 14.8339 12.7324C14.9875 12.7324 15.1492 12.7647 15.327 12.8374C15.5048 12.9102 15.6907 13.0153 15.8928 13.1527L18.5684 15.0523C18.7786 15.1978 18.9241 15.3675 19.013 15.5696C19.0938 15.7717 19.1423 15.9738 19.1423 16.2001Z" stroke="white" stroke-width="1.5" stroke-miterlimit="10"/>
<path id="Vector_2" d="M16.3372 8.65925C16.3372 8.17425 15.9573 7.43058 15.3915 6.82433C14.8741 6.26658 14.1871 5.83008 13.5081 5.83008" stroke="white" stroke-width="1.5" stroke-linecap="round" stroke-linejoin="round"/>
<path id="Vector_3" d="M19.1664 8.65835C19.1664 5.53009 16.6363 3 13.5081 3" stroke="white" stroke-width="1.5" stroke-linecap="round" stroke-linejoin="round"/>
</g>
</g>
</g>
</svg>
