<svg width="35" height="34" viewBox="0 0 35 34" fill="none" xmlns="http://www.w3.org/2000/svg">
<g id="vuesax/linear/camera">
<g id="camera">
<path id="Vector" d="M10.2432 31.1666H25.0899C28.9999 31.1666 30.5582 28.7725 30.7424 25.8541L31.4791 14.1525C31.6774 11.0925 29.2407 8.49998 26.1666 8.49998C25.3024 8.49998 24.5091 8.00415 24.1124 7.23915L23.0924 5.18498C22.4407 3.89581 20.7407 2.83331 19.2957 2.83331H16.0516C14.5924 2.83331 12.8924 3.89581 12.2407 5.18498L11.2207 7.23915C10.8241 8.00415 10.0307 8.49998 9.16658 8.49998C6.09241 8.49998 3.65575 11.0925 3.85408 14.1525L4.59075 25.8541C4.76075 28.7725 6.33325 31.1666 10.2432 31.1666Z" stroke="white" stroke-width="2.125" stroke-linecap="round" stroke-linejoin="round"/>
<path id="Vector_2" d="M15.5416 11.3333H19.7916" stroke="white" stroke-width="2.125" stroke-linecap="round" stroke-linejoin="round"/>
<path id="Vector_3" d="M17.6666 25.5C20.2024 25.5 22.2708 23.4317 22.2708 20.8959C22.2708 18.36 20.2024 16.2917 17.6666 16.2917C15.1308 16.2917 13.0624 18.36 13.0624 20.8959C13.0624 23.4317 15.1308 25.5 17.6666 25.5Z" stroke="white" stroke-width="2.125" stroke-linecap="round" stroke-linejoin="round"/>
</g>
</g>
</svg>
