<svg width="24" height="24" viewBox="0 0 24 24" fill="none" xmlns="http://www.w3.org/2000/svg">
<g id="vuesax/linear/candle">
<g id="candle">
<path id="Vector" d="M7 22L7 14" stroke="#E32A2F" stroke-width="1.5" stroke-miterlimit="10" stroke-linecap="round" stroke-linejoin="round"/>
<path id="Vector_2" d="M7 6V2" stroke="#E32A2F" stroke-width="1.5" stroke-miterlimit="10" stroke-linecap="round" stroke-linejoin="round"/>
<path id="Vector_3" d="M18 22L18 17" stroke="#E32A2F" stroke-width="1.5" stroke-miterlimit="10" stroke-linecap="round" stroke-linejoin="round"/>
<path id="Vector_4" d="M18 9V2" stroke="#E32A2F" stroke-width="1.5" stroke-miterlimit="10" stroke-linecap="round" stroke-linejoin="round"/>
<path id="Vector_5" d="M10 7.6V12.4C10 13.28 9.5 14 8 14H6C4.5 14 4 13.28 4 12.4V7.6C4 6.72 4.5 6 6 6H8C9.5 6 10 6.72 10 7.6Z" stroke="#E32A2F" stroke-width="1.5" stroke-miterlimit="10" stroke-linecap="round" stroke-linejoin="round"/>
<path id="Vector_6" d="M21 10.6V15.4C21 16.28 20.5 17 19 17H17C15.5 17 15 16.28 15 15.4V10.6C15 9.72 15.5 9 17 9H19C20.5 9 21 9.72 21 10.6Z" stroke="#E32A2F" stroke-width="1.5" stroke-miterlimit="10" stroke-linecap="round" stroke-linejoin="round"/>
</g>
</g>
</svg>
