<svg width="996" height="719" viewBox="0 0 996 719" fill="none" xmlns="http://www.w3.org/2000/svg">
<g filter="url(#filter0_f_997_4011)">
<rect width="459.61" height="297.67" transform="matrix(0.866025 -0.5 0.866025 0.5 170 400)" fill="#E32A2F" fill-opacity="0.35"/>
</g>
<g filter="url(#filter1_d_997_4011)">
<g clip-path="url(#clip0_997_4011)">
<mask id="path-3-inside-1_997_4011" fill="white">
<path d="M246.321 402C236.755 396.477 236.755 387.523 246.321 382L537.93 213.639C547.496 208.116 563.005 208.116 572.571 213.639L748.738 315.349C758.304 320.872 758.304 329.826 748.738 335.349L457.129 503.71C447.563 509.233 432.053 509.233 422.488 503.71L246.321 402Z"/>
</mask>
<rect width="650" height="420" transform="matrix(0.866025 -0.5 0.866025 0.5 229 392)" fill="#DF262B"/>
<path d="M547.543 318.719L560.81 326.377L565.05 323.929L556.206 318.824L571.714 309.871L580.558 314.977L584.798 312.529L571.532 304.87L547.543 318.719ZM546.998 314.067L563.354 304.625C565.232 303.052 564.808 300.918 563.354 299.519L538.154 314.067C540.577 314.907 544.272 315.082 546.998 314.067ZM547.907 333.826C549.118 332.078 548.694 330.504 547.362 329.175L528.28 340.191L510.652 330.014L506.351 332.497L528.28 345.157L547.907 333.826ZM478.849 353.34L493.993 344.597C495.629 342.884 495.75 340.785 494.357 339.422L470.368 353.27L483.332 360.754L502.959 349.423L507.502 352.046L492.115 360.929C490.359 362.712 489.935 364.846 491.025 366.664L516.165 352.151L502.898 344.492L483.271 355.823L478.849 353.34ZM441.594 374.917L457.95 365.475C459.828 363.901 459.464 361.733 457.95 360.369L432.689 374.952C435.113 375.791 438.808 375.966 441.594 374.917ZM450.257 379.918L466.613 370.476C468.49 368.902 468.127 366.734 466.613 365.37L441.352 379.953C443.775 380.792 447.47 380.967 450.257 379.918ZM459.162 385.059L475.517 375.617C477.395 374.043 477.032 371.875 475.517 370.511L450.257 385.094C452.68 385.933 456.436 386.143 459.162 385.059Z" fill="white"/>
<path d="M394.647 396.984C397.07 397.823 400.704 397.963 403.43 396.949L410.336 392.963L410.821 392.823L428.206 402.859L432.507 400.376L415.122 390.34L415.364 390.06L422.27 386.073C423.966 384.395 423.784 382.401 422.33 381.002L422.27 380.967L394.647 396.984Z" fill="white"/>
<path d="M671.752 264L395.752 484.5L431.752 506L442.752 508L454.752 506L755.752 333L761.252 327.5L763.252 322L759.752 315.5L671.752 264Z" fill="url(#paint0_linear_997_4011)" fill-opacity="0.17"/>
<path d="M580.752 213.5L277.252 416.5L248.252 400.5L245.252 398L242.252 394.5L240.752 390.5L241.752 386.5L244.752 383L542.252 211L563.252 206.5L580.752 213.5Z" fill="url(#paint1_linear_997_4011)" fill-opacity="0.12"/>
</g>
<path d="M229 392L555.251 203.639L229 392ZM748.738 315.349C759.739 321.701 759.739 331.998 748.738 338.349L459.727 505.21C448.726 511.561 430.89 511.561 419.889 505.21L425.086 502.21C433.217 506.905 446.4 506.905 454.53 502.21L746.14 333.849C755.706 328.326 756.869 320.044 748.738 315.349ZM459.727 505.21C448.726 511.561 430.89 511.561 419.889 505.21L246.321 405C235.32 398.649 235.32 388.351 246.321 382C238.19 386.694 239.353 394.977 248.919 400.5L425.086 502.21C433.217 506.905 446.4 506.905 454.53 502.21L459.727 505.21ZM555.251 203.639L766.059 325.349L555.251 203.639Z" fill="#7C0609" mask="url(#path-3-inside-1_997_4011)"/>
</g>
<defs>
<filter id="filter0_f_997_4011" x="0" y="0.195312" width="995.823" height="718.64" filterUnits="userSpaceOnUse" color-interpolation-filters="sRGB">
<feFlood flood-opacity="0" result="BackgroundImageFix"/>
<feBlend mode="normal" in="SourceGraphic" in2="BackgroundImageFix" result="shape"/>
<feGaussianBlur stdDeviation="85" result="effect1_foregroundBlur_997_4011"/>
</filter>
<filter id="filter1_d_997_4011" x="225" y="203.639" width="545.059" height="318.071" filterUnits="userSpaceOnUse" color-interpolation-filters="sRGB">
<feFlood flood-opacity="0" result="BackgroundImageFix"/>
<feColorMatrix in="SourceAlpha" type="matrix" values="0 0 0 0 0 0 0 0 0 0 0 0 0 0 0 0 0 0 127 0" result="hardAlpha"/>
<feOffset dy="4"/>
<feGaussianBlur stdDeviation="2"/>
<feComposite in2="hardAlpha" operator="out"/>
<feColorMatrix type="matrix" values="0 0 0 0 0 0 0 0 0 0 0 0 0 0 0 0 0 0 0.25 0"/>
<feBlend mode="normal" in2="BackgroundImageFix" result="effect1_dropShadow_997_4011"/>
<feBlend mode="normal" in="SourceGraphic" in2="effect1_dropShadow_997_4011" result="shape"/>
</filter>
<linearGradient id="paint0_linear_997_4011" x1="568.752" y1="357.5" x2="620.724" y2="412.274" gradientUnits="userSpaceOnUse">
<stop stop-color="white" stop-opacity="0"/>
<stop offset="1" stop-color="white"/>
</linearGradient>
<linearGradient id="paint1_linear_997_4011" x1="349.252" y1="319" x2="368.752" y2="342.5" gradientUnits="userSpaceOnUse">
<stop stop-color="white"/>
<stop offset="1" stop-color="white" stop-opacity="0"/>
</linearGradient>
<clipPath id="clip0_997_4011">
<path d="M246.321 402C236.755 396.477 236.755 387.523 246.321 382L537.93 213.639C547.496 208.116 563.005 208.116 572.571 213.639L748.738 315.349C758.304 320.872 758.304 329.826 748.738 335.349L457.129 503.71C447.563 509.233 432.053 509.233 422.488 503.71L246.321 402Z" fill="white"/>
</clipPath>
</defs>
</svg>
