<svg width="1024" height="529" viewBox="0 0 1024 529" fill="none" xmlns="http://www.w3.org/2000/svg">
    <g filter="url(#filter0_f_943_8304)">
        <rect width="558.804" height="361.074" transform="matrix(0.866025 -0.5 0.866025 0.5 26.6797 325.082)" fill="#E32A2F" fill-opacity="0.25"/>
    </g>
    <g filter="url(#filter1_d_943_8304)">
        <g clip-path="url(#clip0_943_8304)">
            <mask id="path-2-inside-1_943_8304" fill="white">
                <path d="M165.067 318C155.501 312.477 155.501 303.523 165.067 298L456.676 129.639C466.242 124.116 481.751 124.116 491.317 129.639L667.484 231.349C677.05 236.872 677.05 245.826 667.484 251.349L375.875 419.71C366.309 425.233 350.799 425.233 341.234 419.71L165.067 318Z"/>
            </mask>
            <rect width="650" height="420" transform="matrix(0.866025 -0.5 0.866025 0.5 147.746 308)" fill="#DF262B"/>
            <path d="M466.29 234.719L479.556 242.377L483.796 239.929L474.952 234.824L490.46 225.871L499.304 230.977L503.544 228.529L490.278 220.87L466.29 234.719ZM465.744 230.067L482.1 220.625C483.978 219.052 483.554 216.918 482.1 215.519L456.9 230.067C459.323 230.907 463.018 231.082 465.744 230.067ZM466.653 249.826C467.865 248.078 467.44 246.504 466.108 245.175L447.026 256.191L429.398 246.014L425.097 248.497L447.026 261.157L466.653 249.826ZM397.595 269.34L412.739 260.597C414.375 258.884 414.496 256.785 413.103 255.422L389.114 269.27L402.078 276.754L421.705 265.423L426.248 268.046L410.862 276.929C409.105 278.712 408.681 280.846 409.771 282.664L434.911 268.151L421.644 260.492L402.017 271.823L397.595 269.34ZM360.34 290.917L376.696 281.475C378.574 279.901 378.211 277.733 376.696 276.369L351.436 290.952C353.859 291.791 357.554 291.966 360.34 290.917ZM369.003 295.918L385.359 286.476C387.237 284.902 386.873 282.734 385.359 281.37L360.098 295.953C362.521 296.792 366.216 296.967 369.003 295.918ZM377.908 301.059L394.263 291.617C396.141 290.043 395.778 287.875 394.263 286.511L369.003 301.094C371.426 301.933 375.182 302.143 377.908 301.059Z" fill="white"/>
            <path d="M313.393 312.984C315.816 313.823 319.45 313.963 322.176 312.949L329.082 308.963L329.567 308.823L346.952 318.859L351.253 316.376L333.868 306.34L334.11 306.06L341.016 302.073C342.712 300.395 342.53 298.401 341.076 297.002L341.016 296.967L313.393 312.984Z" fill="white"/>
            <path d="M590.498 180L314.498 400.5L350.498 422L361.498 424L373.498 422L674.498 249L679.998 243.5L681.998 238L678.498 231.5L590.498 180Z" fill="url(#paint0_linear_943_8304)" fill-opacity="0.17"/>
            <path d="M499.498 129.5L195.998 332.5L166.998 316.5L163.998 314L160.998 310.5L159.498 306.5L160.498 302.5L163.498 299L460.998 127L481.998 122.5L499.498 129.5Z" fill="url(#paint1_linear_943_8304)" fill-opacity="0.12"/>
        </g>
        <path d="M147.746 308L473.997 119.639L147.746 308ZM667.484 231.349C678.485 237.701 678.485 247.998 667.484 254.349L378.473 421.21C367.472 427.561 349.636 427.561 338.636 421.21L343.832 418.21C351.963 422.905 365.146 422.905 373.277 418.21L664.886 249.849C674.452 244.326 675.615 236.044 667.484 231.349ZM378.473 421.21C367.472 427.561 349.636 427.561 338.636 421.21L165.067 321C154.066 314.649 154.066 304.351 165.067 298C156.936 302.694 158.099 310.977 167.665 316.5L343.832 418.21C351.963 422.905 365.146 422.905 373.277 418.21L378.473 421.21ZM473.997 119.639L684.805 241.349L473.997 119.639Z" fill="#7C0609" mask="url(#path-2-inside-1_943_8304)"/>
    </g>
    <defs>
        <filter id="filter0_f_943_8304" x="-173.32" y="-154.32" width="1196.64" height="859.939" filterUnits="userSpaceOnUse" color-interpolation-filters="sRGB">
            <feFlood flood-opacity="0" result="BackgroundImageFix"/>
            <feBlend mode="normal" in="SourceGraphic" in2="BackgroundImageFix" result="shape"/>
            <feGaussianBlur stdDeviation="100" result="effect1_foregroundBlur_943_8304"/>
        </filter>
        <filter id="filter1_d_943_8304" x="143.746" y="119.639" width="545.059" height="318.071" filterUnits="userSpaceOnUse" color-interpolation-filters="sRGB">
            <feFlood flood-opacity="0" result="BackgroundImageFix"/>
            <feColorMatrix in="SourceAlpha" type="matrix" values="0 0 0 0 0 0 0 0 0 0 0 0 0 0 0 0 0 0 127 0" result="hardAlpha"/>
            <feOffset dy="4"/>
            <feGaussianBlur stdDeviation="2"/>
            <feComposite in2="hardAlpha" operator="out"/>
            <feColorMatrix type="matrix" values="0 0 0 0 0 0 0 0 0 0 0 0 0 0 0 0 0 0 0.25 0"/>
            <feBlend mode="normal" in2="BackgroundImageFix" result="effect1_dropShadow_943_8304"/>
            <feBlend mode="normal" in="SourceGraphic" in2="effect1_dropShadow_943_8304" result="shape"/>
        </filter>
        <linearGradient id="paint0_linear_943_8304" x1="487.498" y1="273.5" x2="539.47" y2="328.274" gradientUnits="userSpaceOnUse">
            <stop stop-color="white" stop-opacity="0"/>
            <stop offset="1" stop-color="white"/>
        </linearGradient>
        <linearGradient id="paint1_linear_943_8304" x1="267.998" y1="235" x2="287.498" y2="258.5" gradientUnits="userSpaceOnUse">
            <stop stop-color="white"/>
            <stop offset="1" stop-color="white" stop-opacity="0"/>
        </linearGradient>
        <clipPath id="clip0_943_8304">
            <path d="M165.067 318C155.501 312.477 155.501 303.523 165.067 298L456.676 129.639C466.242 124.116 481.751 124.116 491.317 129.639L667.484 231.349C677.05 236.872 677.05 245.826 667.484 251.349L375.875 419.71C366.309 425.233 350.799 425.233 341.234 419.71L165.067 318Z" fill="white"/>
        </clipPath>
    </defs>
</svg>
