<svg width="26" height="26" viewBox="0 0 26 26" fill="none" xmlns="http://www.w3.org/2000/svg">
<g id="_Checkbox base">
<rect width="26" height="26" rx="6" fill="#E32A2F"/>
<g id="check_small">
<mask id="mask0_943_8918" style="mask-type:alpha" maskUnits="userSpaceOnUse" x="2" y="2" width="22" height="22">
<rect id="Bounding box" x="2" y="2" width="22" height="22" fill="#D9D9D9"/>
</mask>
<g mask="url(#mask0_943_8918)">
<path id="check_small_2" d="M11.1662 14.4669L16.5746 9.05854C16.7426 8.89049 16.9565 8.80646 17.2162 8.80646C17.476 8.80646 17.6899 8.89049 17.8579 9.05854C18.026 9.2266 18.11 9.44049 18.11 9.70021C18.11 9.95993 18.026 10.1738 17.8579 10.3419L11.8079 16.3919C11.6246 16.5752 11.4107 16.6669 11.1662 16.6669C10.9218 16.6669 10.7079 16.5752 10.5246 16.3919L8.14124 14.0085C7.97319 13.8405 7.88916 13.6266 7.88916 13.3669C7.88916 13.1072 7.97319 12.8933 8.14124 12.7252C8.3093 12.5572 8.52319 12.4731 8.78291 12.4731C9.04263 12.4731 9.25652 12.5572 9.42458 12.7252L11.1662 14.4669Z" fill="white"/>
</g>
</g>
</g>
</svg>
