<svg width="34" height="34" viewBox="0 0 34 34" fill="none" xmlns="http://www.w3.org/2000/svg">
<path d="M5.65191 20.7688L3.49859 18.6154C2.62026 17.7371 2.62026 16.2921 3.49859 15.4137L5.65191 13.2604C6.02025 12.892 6.31775 12.1695 6.31775 11.6595V8.61368C6.31775 7.36701 7.33776 6.34704 8.58442 6.34704H11.6302C12.1402 6.34704 12.8628 6.04958 13.2311 5.68125L15.3844 3.52789C16.2627 2.64956 17.7078 2.64956 18.5861 3.52789L20.7395 5.68125C21.1078 6.04958 21.8302 6.34704 22.3402 6.34704H25.3861C26.6328 6.34704 27.6528 7.36701 27.6528 8.61368V11.6595C27.6528 12.1695 27.9503 12.892 28.3186 13.2604L30.4719 15.4137C31.3503 16.2921 31.3503 17.7371 30.4719 18.6154L28.3186 20.7688C27.9503 21.1371 27.6528 21.8596 27.6528 22.3696V25.4153C27.6528 26.662 26.6328 27.6821 25.3861 27.6821H22.3402C21.8302 27.6821 21.1078 27.9796 20.7395 28.3479L18.5861 30.5013C17.7078 31.3796 16.2627 31.3796 15.3844 30.5013L13.2311 28.3479C12.8628 27.9796 12.1402 27.6821 11.6302 27.6821H8.58442C7.33776 27.6821 6.31775 26.662 6.31775 25.4153V22.3696C6.31775 21.8455 6.02025 21.123 5.65191 20.7688Z" stroke="white" stroke-width="2" stroke-linecap="round" stroke-linejoin="round"/>
<path d="M12.75 21.25L21.25 12.75" stroke="white" stroke-width="2" stroke-linecap="round" stroke-linejoin="round"/>
<path d="M20.5345 20.5413H20.5473" stroke="white" stroke-width="2.2" stroke-linecap="round" stroke-linejoin="round"/>
<path d="M13.4506 13.4583H13.4633" stroke="white" stroke-width="2.2" stroke-linecap="round" stroke-linejoin="round"/>
</svg>
