<svg width="21" height="20" viewBox="0 0 21 20" fill="none" xmlns="http://www.w3.org/2000/svg">
<path d="M6.56543 15.292L9.14876 17.292C9.4821 17.6254 10.2321 17.792 10.7321 17.792H13.8988C14.8988 17.792 15.9821 17.042 16.2321 16.042L18.2321 9.95871C18.6488 8.79205 17.8988 7.79205 16.6488 7.79205H13.3154C12.8154 7.79205 12.3988 7.37538 12.4821 6.79205L12.8988 4.12538C13.0654 3.37538 12.5654 2.54205 11.8154 2.29205C11.1488 2.04205 10.3154 2.37538 9.9821 2.87538L6.56543 7.95871" stroke="#27AE60" stroke-width="1.5" stroke-miterlimit="10"/>
<path d="M2.31543 15.293V7.1263C2.31543 5.95964 2.81543 5.54297 3.9821 5.54297H4.81543C5.9821 5.54297 6.4821 5.95964 6.4821 7.1263V15.293C6.4821 16.4596 5.9821 16.8763 4.81543 16.8763H3.9821C2.81543 16.8763 2.31543 16.4596 2.31543 15.293Z" stroke="#27AE60" stroke-width="1.5" stroke-linecap="round" stroke-linejoin="round"/>
</svg>
