<svg width="24" height="24" viewBox="0 0 24 24" fill="none" xmlns="http://www.w3.org/2000/svg">
<path d="M14.5492 2H9.44922C7.64922 2 7.24923 2.90001 7.01923 4.01001L6.19922 7.92999H17.7992L16.9792 4.01001C16.7492 2.90001 16.3492 2 14.5492 2Z" stroke="#E32A2F" stroke-width="1.8" stroke-linecap="round" stroke-linejoin="round"/>
<path d="M19.2396 14.3199C19.3196 15.1699 18.6396 15.9 17.7696 15.9H16.4096C15.6296 15.9 15.5196 15.57 15.3796 15.15L15.2296 14.7199C15.0296 14.1299 14.8996 13.7299 13.8496 13.7299H10.1396C9.09957 13.7299 8.93956 14.1799 8.75956 14.7199L8.60957 15.15C8.46957 15.56 8.35957 15.9 7.57957 15.9H6.21957C5.34957 15.9 4.66957 15.1699 4.74957 14.3199L5.15957 9.89996C5.25957 8.80996 5.46956 7.91992 7.36956 7.91992H16.6196C18.5196 7.91992 18.7296 8.80996 18.8296 9.89996L19.2396 14.3199Z" stroke="#E32A2F" stroke-width="1.8" stroke-linecap="round" stroke-linejoin="round"/>
<path d="M6.19972 5.75H5.46973" stroke="#E32A2F" stroke-width="1.8" stroke-linecap="round" stroke-linejoin="round"/>
<path d="M18.5298 5.75H17.7998" stroke="#E32A2F" stroke-width="1.8" stroke-linecap="round" stroke-linejoin="round"/>
<path d="M7.64941 10.8301H9.81943" stroke="#E32A2F" stroke-width="1.8" stroke-linecap="round" stroke-linejoin="round"/>
<path d="M14.1797 10.8301H16.3497" stroke="#E32A2F" stroke-width="1.8" stroke-linecap="round" stroke-linejoin="round"/>
<path d="M12 17V18" stroke="#E32A2F" stroke-width="1.8" stroke-linecap="round" stroke-linejoin="round"/>
<path d="M12 21V22" stroke="#E32A2F" stroke-width="1.8" stroke-linecap="round" stroke-linejoin="round"/>
<path d="M3 18L2 22" stroke="#E32A2F" stroke-width="1.8" stroke-linecap="round" stroke-linejoin="round"/>
<path d="M21 18L22 22" stroke="#E32A2F" stroke-width="1.8" stroke-linecap="round" stroke-linejoin="round"/>
</svg>
