<svg width="25" height="24" viewBox="0 0 25 24" fill="none" xmlns="http://www.w3.org/2000/svg">
<path d="M16.4107 12C16.4107 13.98 14.8107 15.58 12.8307 15.58C10.8507 15.58 9.25067 13.98 9.25067 12C9.25067 10.02 10.8507 8.41998 12.8307 8.41998C14.8107 8.41998 16.4107 10.02 16.4107 12Z" stroke="#A7A6A8" stroke-width="1.5" stroke-linecap="round" stroke-linejoin="round"/>
<path d="M12.8307 20.27C16.3607 20.27 19.6507 18.19 21.9407 14.59C22.8407 13.18 22.8407 10.81 21.9407 9.39997C19.6507 5.79997 16.3607 3.71997 12.8307 3.71997C9.30072 3.71997 6.01072 5.79997 3.72072 9.39997C2.82072 10.81 2.82072 13.18 3.72072 14.59C6.01072 18.19 9.30072 20.27 12.8307 20.27Z" stroke="#A7A6A8" stroke-width="1.5" stroke-linecap="round" stroke-linejoin="round"/>
</svg>
