<svg width="34" height="34" viewBox="0 0 34 34" fill="none" xmlns="http://www.w3.org/2000/svg">
<g id="vuesax/linear/flash-circle">
<g id="flash-circle">
<path id="Vector" d="M12.2967 18.02H14.7617V23.7575C14.7617 24.6075 15.81 25.0042 16.3767 24.3667L22.4117 17.51C22.9358 16.915 22.5108 15.98 21.7175 15.98H19.2525V10.2425C19.2525 9.39251 18.2042 8.99584 17.6375 9.63334L11.6025 16.49C11.0783 17.085 11.5033 18.02 12.2967 18.02Z" stroke="white" stroke-width="2.125" stroke-miterlimit="10" stroke-linecap="round" stroke-linejoin="round"/>
<path id="Vector_2" d="M16.9575 31.1666C24.7815 31.1666 31.1242 24.824 31.1242 17C31.1242 9.17595 24.7815 2.83331 16.9575 2.83331C9.13346 2.83331 2.79083 9.17595 2.79083 17C2.79083 24.824 9.13346 31.1666 16.9575 31.1666Z" stroke="white" stroke-width="2.125" stroke-miterlimit="10" stroke-linecap="round" stroke-linejoin="round"/>
</g>
</g>
</svg>
