<svg width="46" height="46" viewBox="0 0 46 46" fill="none" xmlns="http://www.w3.org/2000/svg">
<g id="vuesax/linear/key">
<g id="key">
<path id="Vector" d="M37.9306 28.6158C33.9823 32.545 28.3281 33.7524 23.3639 32.1999L14.3364 41.2083C13.6848 41.8791 12.4006 42.2816 11.4806 42.1474L7.30225 41.5725C5.92225 41.3808 4.63808 40.0775 4.42725 38.6975L3.85225 34.5191C3.71808 33.5991 4.15892 32.315 4.79142 31.6633L13.7998 22.6549C12.2664 17.6716 13.4548 12.0174 17.4031 8.08828C23.0573 2.43411 32.2381 2.43411 37.9114 8.08828C43.5848 13.7424 43.5848 22.9616 37.9306 28.6158Z" stroke="#E32A2F" stroke-width="2" stroke-miterlimit="10" stroke-linecap="round" stroke-linejoin="round"/>
<path id="Vector_2" d="M13.2051 33.5225L17.6134 37.9308" stroke="#E32A2F" stroke-width="2" stroke-miterlimit="10" stroke-linecap="round" stroke-linejoin="round"/>
<path id="Vector_3" d="M27.791 21.083C29.3788 21.083 30.666 19.7958 30.666 18.208C30.666 16.6202 29.3788 15.333 27.791 15.333C26.2032 15.333 24.916 16.6202 24.916 18.208C24.916 19.7958 26.2032 21.083 27.791 21.083Z" stroke="#E32A2F" stroke-width="2" stroke-linecap="round" stroke-linejoin="round"/>
</g>
</g>
</svg>
