<svg width="18" height="18" viewBox="0 0 18 18" fill="none" xmlns="http://www.w3.org/2000/svg">
<g id="keyboard_arrow_down">
<mask id="mask0_943_8329" style="mask-type:alpha" maskUnits="userSpaceOnUse" x="0" y="0" width="18" height="18">
<rect id="Bounding box" width="18" height="18" fill="#D9D9D9"/>
</mask>
<g mask="url(#mask0_943_8329)">
<path id="keyboard_arrow_down_2" d="M8.99961 11.2312C8.89961 11.2312 8.80586 11.2156 8.71836 11.1844C8.63086 11.1531 8.54961 11.1 8.47461 11.025L5.02461 7.57498C4.88711 7.43748 4.81836 7.26248 4.81836 7.04998C4.81836 6.83748 4.88711 6.66248 5.02461 6.52498C5.16211 6.38748 5.33711 6.31873 5.54961 6.31873C5.76211 6.31873 5.93711 6.38748 6.07461 6.52498L8.99961 9.44998L11.9246 6.52498C12.0621 6.38748 12.2371 6.31873 12.4496 6.31873C12.6621 6.31873 12.8371 6.38748 12.9746 6.52498C13.1121 6.66248 13.1809 6.83748 13.1809 7.04998C13.1809 7.26248 13.1121 7.43748 12.9746 7.57498L9.52461 11.025C9.44961 11.1 9.36836 11.1531 9.28086 11.1844C9.19336 11.2156 9.09961 11.2312 8.99961 11.2312Z" fill="white"/>
</g>
</g>
</svg>
