<svg width="46" height="46" viewBox="0 0 46 46" fill="none" xmlns="http://www.w3.org/2000/svg">
<g id="vuesax/linear/like">
<g id="like">
<path id="Vector" d="M14.3359 35.1707L20.2776 39.7707C21.0443 40.5374 22.7693 40.9207 23.9193 40.9207H31.2026C33.5026 40.9207 35.9943 39.1957 36.5693 36.8957L41.1693 22.9041C42.1276 20.2207 40.4026 17.9207 37.5276 17.9207H29.8609C28.7109 17.9207 27.7526 16.9624 27.9443 15.6207L28.9026 9.4874C29.2859 7.7624 28.1359 5.84573 26.4109 5.27073C24.8776 4.69573 22.9609 5.4624 22.1943 6.6124L14.3359 18.3041" stroke="#E32A2F" stroke-width="2" stroke-miterlimit="10"/>
<path id="Vector_2" d="M4.5625 35.1711V16.3878C4.5625 13.7044 5.7125 12.7461 8.39583 12.7461H10.3125C12.9958 12.7461 14.1458 13.7044 14.1458 16.3878V35.1711C14.1458 37.8544 12.9958 38.8128 10.3125 38.8128H8.39583C5.7125 38.8128 4.5625 37.8544 4.5625 35.1711Z" stroke="#E32A2F" stroke-width="2" stroke-linecap="round" stroke-linejoin="round"/>
</g>
</g>
</svg>
