<svg width="46" height="46" viewBox="0 0 46 46" fill="none" xmlns="http://www.w3.org/2000/svg">
<path d="M42.1667 17.2501V28.7501C42.1667 33.5417 41.2084 36.8959 39.0617 39.0617L26.8334 26.8334L41.6492 12.0176C41.9942 13.5317 42.1667 15.2567 42.1667 17.2501Z" stroke="#E32A2F" stroke-width="2" stroke-linecap="round" stroke-linejoin="round"/>
<path d="M41.6492 12.0182L12.0175 41.6498C6.24835 40.3273 3.83337 36.3407 3.83337 28.7507V17.2507C3.83337 7.66732 7.66671 3.83398 17.25 3.83398H28.75C36.34 3.83398 40.3267 6.24899 41.6492 12.0182Z" stroke="#E32A2F" stroke-width="2" stroke-linecap="round" stroke-linejoin="round"/>
<path d="M39.0617 39.0623C36.8958 41.209 33.5416 42.1673 28.75 42.1673H17.25C15.2566 42.1673 13.5316 41.9948 12.0175 41.6498L26.8333 26.834L39.0617 39.0623Z" stroke="#E32A2F" stroke-width="2" stroke-linecap="round" stroke-linejoin="round"/>
<path d="M11.96 15.2959C13.2633 9.68003 21.6967 9.68003 23 15.2959C23.7475 18.5925 21.6775 21.3909 19.8567 23.1159C18.5342 24.3809 16.445 24.3809 15.1034 23.1159C13.2825 21.3909 11.1933 18.5925 11.96 15.2959Z" stroke="#E32A2F" stroke-width="2"/>
<path d="M17.4313 16.6751H17.4485" stroke="#E32A2F" stroke-width="2" stroke-linecap="round" stroke-linejoin="round"/>
</svg>
