<svg width="46" height="46" viewBox="0 0 46 46" fill="none" xmlns="http://www.w3.org/2000/svg">
<path d="M36.4173 17.2497C36.4173 20.0288 35.5932 22.578 34.1748 24.7055C32.1048 27.7722 28.8273 29.938 25.0132 30.4938C24.3615 30.6088 23.6907 30.6663 23.0007 30.6663C22.3107 30.6663 21.6398 30.6088 20.9882 30.4938C17.174 29.938 13.8965 27.7722 11.8265 24.7055C10.4082 22.578 9.58398 20.0288 9.58398 17.2497C9.58398 9.83217 15.5832 3.83301 23.0007 3.83301C30.4182 3.83301 36.4173 9.83217 36.4173 17.2497Z" stroke="#E32A2F" stroke-width="2" stroke-linecap="round" stroke-linejoin="round"/>
<path d="M40.7283 35.4005L37.5658 36.1479C36.8566 36.3204 36.3008 36.8571 36.1474 37.5663L35.4766 40.3838C35.1124 41.9171 33.1574 42.3771 32.1416 41.1696L22.9991 30.6663L13.8566 41.1888C12.8408 42.3963 10.8858 41.9363 10.5216 40.4029L9.85076 37.5854C9.67826 36.8763 9.12243 36.3204 8.43243 36.1671L5.26993 35.4196C3.81326 35.0746 3.29576 33.2538 4.34993 32.1996L11.8249 24.7246C13.8949 27.7913 17.1724 29.9571 20.9866 30.513C21.6383 30.628 22.3091 30.6855 22.9991 30.6855C23.6891 30.6855 24.3599 30.628 25.0116 30.513C28.8258 29.9571 32.1033 27.7913 34.1733 24.7246L41.6483 32.1996C42.7024 33.2346 42.1849 35.0555 40.7283 35.4005Z" stroke="#E32A2F" stroke-width="2" stroke-linecap="round" stroke-linejoin="round"/>
<path d="M24.1108 11.462L25.2416 13.7236C25.395 14.0303 25.7975 14.337 26.1616 14.3945L28.2125 14.7395C29.5158 14.9503 29.8225 15.9087 28.8833 16.8478L27.2925 18.4386C27.0241 18.707 26.8708 19.2245 26.9666 19.6078L27.4266 21.582C27.7908 23.1345 26.9666 23.7478 25.5866 22.9236L23.67 21.7928C23.325 21.582 22.75 21.582 22.405 21.7928L20.4883 22.9236C19.1083 23.7286 18.2841 23.1345 18.6483 21.582L19.1083 19.6078C19.185 19.2437 19.0508 18.707 18.7825 18.4386L17.1916 16.8478C16.2525 15.9087 16.5591 14.9695 17.8625 14.7395L19.9133 14.3945C20.2583 14.337 20.6608 14.0303 20.8141 13.7236L21.945 11.462C22.5008 10.2353 23.4975 10.2353 24.1108 11.462Z" stroke="#E32A2F" stroke-width="2" stroke-linecap="round" stroke-linejoin="round"/>
</svg>
