<svg width="25" height="24" viewBox="0 0 25 24" fill="none" xmlns="http://www.w3.org/2000/svg">
<path d="M8.83203 19H8.33203C4.33203 19 2.33203 18 2.33203 13V8C2.33203 4 4.33203 2 8.33203 2H16.332C20.332 2 22.332 4 22.332 8V13C22.332 17 20.332 19 16.332 19H15.832C15.522 19 15.222 19.15 15.032 19.4L13.532 21.4C12.872 22.28 11.792 22.28 11.132 21.4L9.63203 19.4C9.47203 19.18 9.10203 19 8.83203 19Z" stroke="#A7A6A8" stroke-width="1.5" stroke-miterlimit="10" stroke-linecap="round" stroke-linejoin="round"/>
<path d="M7.33203 8H17.332" stroke="#A7A6A8" stroke-width="1.5" stroke-linecap="round" stroke-linejoin="round"/>
<path d="M7.33203 13H13.332" stroke="#A7A6A8" stroke-width="1.5" stroke-linecap="round" stroke-linejoin="round"/>
</svg>
