<svg width="25" height="24" viewBox="0 0 25 24" fill="none" xmlns="http://www.w3.org/2000/svg">
<g id="replay">
<mask id="mask0_1607_16568" style="mask-type:alpha" maskUnits="userSpaceOnUse" x="0" y="0" width="25" height="24">
<rect id="Bounding box" width="24" height="24" transform="matrix(-1 0 0 1 24.5 0)" fill="#D9D9D9"/>
</mask>
<g mask="url(#mask0_1607_16568)">
<path id="replay_2" d="M12.5 22C13.75 22 14.9208 21.7625 16.0125 21.2875C17.1042 20.8125 18.0542 20.1708 18.8625 19.3625C19.6708 18.5542 20.3125 17.6042 20.7875 16.5125C21.2625 15.4208 21.5 14.25 21.5 13C21.5 12.7167 21.4042 12.4792 21.2125 12.2875C21.0208 12.0958 20.7833 12 20.5 12C20.2167 12 19.9792 12.0958 19.7875 12.2875C19.5958 12.4792 19.5 12.7167 19.5 13C19.5 14.95 18.8208 16.6042 17.4625 17.9625C16.1042 19.3208 14.45 20 12.5 20C10.55 20 8.89583 19.3208 7.5375 17.9625C6.17917 16.6042 5.5 14.95 5.5 13C5.5 11.05 6.17917 9.39585 7.5375 8.03751C8.89583 6.67918 10.55 6.00001 12.5 6.00001H12.65L11.8 6.85001C11.6 7.05001 11.5042 7.28335 11.5125 7.55001C11.5208 7.81668 11.6167 8.05001 11.8 8.25001C12 8.45001 12.2375 8.55418 12.5125 8.56251C12.7875 8.57085 13.025 8.47501 13.225 8.27501L15.8 5.70001C16 5.50001 16.1 5.26668 16.1 5.00001C16.1 4.73335 16 4.50001 15.8 4.30001L13.225 1.72501C13.025 1.52501 12.7875 1.42918 12.5125 1.43751C12.2375 1.44585 12 1.55001 11.8 1.75001C11.6167 1.95001 11.5208 2.18335 11.5125 2.45001C11.5042 2.71668 11.6 2.95001 11.8 3.15001L12.65 4.00001H12.5C11.25 4.00001 10.0792 4.23751 8.9875 4.71251C7.89583 5.18751 6.94583 5.82918 6.1375 6.63751C5.32917 7.44585 4.6875 8.39585 4.2125 9.48751C3.7375 10.5792 3.5 11.75 3.5 13C3.5 14.25 3.7375 15.4208 4.2125 16.5125C4.6875 17.6042 5.32917 18.5542 6.1375 19.3625C6.94583 20.1708 7.89583 20.8125 8.9875 21.2875C10.0792 21.7625 11.25 22 12.5 22Z" fill="white"/>
</g>
</g>
</svg>
