<svg width="26" height="26" viewBox="0 0 26 26" fill="none" xmlns="http://www.w3.org/2000/svg">
<g clip-path="url(#clip0_1053_4210)">
<path fill-rule="evenodd" clip-rule="evenodd" d="M13 0C5.82055 0 0 5.82055 0 13C0 20.1795 5.82055 26 13 26C20.1795 26 26 20.1795 26 13C26 5.82055 20.1795 0 13 0ZM19.0257 8.84102C18.8302 10.8966 17.9837 15.8849 17.553 18.1873C17.3707 19.1618 17.0117 19.4883 16.6644 19.5203C15.9098 19.5899 15.3364 19.0211 14.6052 18.5418C13.4611 17.7917 12.8146 17.325 11.7041 16.5933C10.4203 15.7473 11.2526 15.2826 11.9839 14.5229C12.1753 14.3239 15.5015 11.2983 15.566 11.0241C15.5741 10.9896 15.5817 10.8616 15.5055 10.7941C15.4294 10.7265 15.3171 10.7499 15.2364 10.7682C15.1216 10.7941 13.2935 12.0021 9.75305 14.3924C9.23406 14.7489 8.76434 14.9221 8.34285 14.9134C7.87871 14.9033 6.98598 14.6509 6.32227 14.4351C5.50824 14.1705 4.86129 14.0304 4.91766 13.5809C4.9466 13.3468 5.26906 13.1077 5.88453 12.8629C9.67434 11.2115 12.2012 10.1232 13.4657 9.59715C17.0762 8.0956 17.8263 7.83453 18.3152 7.8259C18.9277 7.81508 19.0756 8.32066 19.0257 8.84102Z" fill="#E32A2F"/>
</g>
<defs>
<clipPath id="clip0_1053_4210">
<rect width="26" height="26" fill="white"/>
</clipPath>
</defs>
</svg>
