<svg width="26" height="26" viewBox="0 0 26 26" fill="none" xmlns="http://www.w3.org/2000/svg">
<circle cx="13" cy="13" r="13" fill="#E32A2F"/>
<g clip-path="url(#clip0_1053_4199)">
<path d="M18.6867 11.7136C18.7059 9.45776 16.7846 7.38979 14.4039 7.10382C14.3565 7.09821 14.3049 7.08966 14.2503 7.08062C14.1325 7.06109 14.0106 7.04102 13.8876 7.04102C13.3997 7.04102 13.2692 7.38377 13.2349 7.5882C13.2015 7.78695 13.2333 7.95386 13.3294 8.08449C13.491 8.30422 13.7753 8.34323 14.0037 8.37448C14.0706 8.38372 14.1338 8.39232 14.1866 8.4042C16.3257 8.88216 17.0459 9.63361 17.3979 11.7545C17.4065 11.8063 17.4104 11.8701 17.4145 11.9379C17.4299 12.1914 17.4619 12.7188 18.0289 12.7188H18.029C18.0762 12.7188 18.1269 12.7148 18.1797 12.7067C18.7078 12.6265 18.6912 12.1443 18.6833 11.9127C18.681 11.8474 18.6789 11.7857 18.6844 11.7447C18.6859 11.7343 18.6867 11.7239 18.6867 11.7136Z" fill="#141219"/>
<path d="M13.7491 6.27642C13.8124 6.28099 13.8724 6.28537 13.9223 6.29302C17.4348 6.83319 19.0502 8.49739 19.4978 12.0374C19.5054 12.0975 19.5066 12.1709 19.5079 12.2486C19.5124 12.5252 19.5215 13.1006 20.1394 13.1125L20.1586 13.1127C20.3524 13.1127 20.5065 13.0543 20.6168 12.9389C20.8091 12.7377 20.7957 12.4388 20.7849 12.1986C20.7823 12.1397 20.7797 12.0842 20.7804 12.0356C20.825 8.41511 17.6911 5.13207 14.0739 5.00999C14.0589 5.00949 14.0446 5.01029 14.0301 5.01232C14.023 5.01337 14.0098 5.01466 13.9873 5.01466C13.9512 5.01466 13.9068 5.01153 13.8598 5.00835C13.8029 5.00447 13.7384 5 13.673 5C13.0969 5 12.9874 5.40944 12.9734 5.65352C12.9411 6.21759 13.4868 6.25729 13.7491 6.27642Z" fill="#141219"/>
<path d="M19.3284 16.6132C19.2537 16.5561 19.1765 16.4971 19.1042 16.4388C18.7207 16.1302 18.3127 15.8458 17.9181 15.5706C17.8362 15.5136 17.7543 15.4565 17.6728 15.3992C17.1673 15.0442 16.7129 14.8717 16.2836 14.8717C15.7054 14.8717 15.2012 15.1912 14.7851 15.8212C14.6008 16.1005 14.3771 16.2363 14.1015 16.2363C13.9385 16.2363 13.7533 16.1898 13.5511 16.098C11.9197 15.3582 10.7547 14.2239 10.0885 12.7266C9.76647 12.0029 9.87087 11.5299 10.4376 11.1449C10.7595 10.9264 11.3585 10.5198 11.3161 9.74106C11.268 8.85673 9.31683 6.19591 8.49472 5.8937C8.14665 5.7657 7.78093 5.76451 7.40578 5.89072C6.46068 6.20843 5.78247 6.7664 5.44428 7.50419C5.11748 8.21708 5.13223 9.05415 5.48697 9.92491C6.51246 12.4425 7.95425 14.6375 9.77243 16.4488C11.5521 18.2219 13.7395 19.6743 16.2738 20.7656C16.5022 20.8638 16.7418 20.9175 16.9167 20.9566C16.9764 20.97 17.0278 20.9814 17.0654 20.9917C17.086 20.9973 17.1072 21.0003 17.1286 21.0005L17.1486 21.0006C17.1486 21.0006 17.1486 21.0006 17.1487 21.0006C18.3406 21.0006 19.7718 19.9114 20.2114 18.6697C20.5965 17.5824 19.8934 17.045 19.3284 16.6132Z" fill="#141219"/>
<path d="M14.2763 9.15278C14.0722 9.15795 13.6475 9.16848 13.4985 9.60103C13.4288 9.80316 13.4371 9.97867 13.5233 10.1227C13.6498 10.3339 13.8922 10.3987 14.1127 10.4342C14.9123 10.5625 15.3229 11.0047 15.405 11.8255C15.4432 12.2083 15.7009 12.4756 16.0319 12.4756C16.0563 12.4756 16.0814 12.4741 16.1062 12.4711C16.5043 12.4237 16.6972 12.1313 16.6798 11.602C16.6861 11.0496 16.397 10.4225 15.9054 9.92296C15.412 9.4219 14.8173 9.13971 14.2763 9.15278Z" fill="#141219"/>
</g>
<defs>
<clipPath id="clip0_1053_4199">
<rect width="16" height="16" fill="white" transform="translate(5 5)"/>
</clipPath>
</defs>
</svg>
