<svg width="26" height="26" viewBox="0 0 26 26" fill="none" xmlns="http://www.w3.org/2000/svg">
<g clip-path="url(#clip0_1053_4190)">
<path d="M15.4883 13C15.4883 14.3743 14.3743 15.4883 13 15.4883C11.6257 15.4883 10.5117 14.3743 10.5117 13C10.5117 11.6257 11.6257 10.5117 13 10.5117C14.3743 10.5117 15.4883 11.6257 15.4883 13Z" fill="#E32A2F"/>
<path d="M18.8192 8.5981C18.6995 8.27397 18.5087 7.98059 18.2608 7.73978C18.0199 7.49182 17.7268 7.30099 17.4024 7.18138C17.1394 7.07922 16.7443 6.95763 16.0165 6.9245C15.2292 6.8886 14.9931 6.88086 12.9999 6.88086C11.0066 6.88086 10.7705 6.8884 9.98341 6.9243C9.25562 6.95763 8.86028 7.07922 8.59744 7.18138C8.27312 7.30099 7.97974 7.49182 7.73912 7.73978C7.49117 7.98059 7.30034 8.27377 7.18053 8.5981C7.07837 8.86113 6.95677 9.25647 6.92365 9.98427C6.88774 10.7714 6.88 11.0074 6.88 13.0008C6.88 14.994 6.88774 15.23 6.92365 16.0173C6.95677 16.7451 7.07837 17.1403 7.18053 17.4033C7.30034 17.7276 7.49097 18.0208 7.73892 18.2616C7.97974 18.5096 8.27292 18.7004 8.59724 18.82C8.86028 18.9224 9.25562 19.044 9.98341 19.0771C10.7705 19.113 11.0064 19.1205 12.9997 19.1205C14.9933 19.1205 15.2294 19.113 16.0163 19.0771C16.7441 19.044 17.1394 18.9224 17.4024 18.82C18.0535 18.5689 18.568 18.0543 18.8192 17.4033C18.9213 17.1403 19.0429 16.7451 19.0762 16.0173C19.1121 15.23 19.1197 14.994 19.1197 13.0008C19.1197 11.0074 19.1121 10.7714 19.0762 9.98427C19.0431 9.25647 18.9215 8.86113 18.8192 8.5981ZM12.9999 16.8338C10.8828 16.8338 9.16655 15.1177 9.16655 13.0006C9.16655 10.8835 10.8828 9.1674 12.9999 9.1674C15.1169 9.1674 16.8331 10.8835 16.8331 13.0006C16.8331 15.1177 15.1169 16.8338 12.9999 16.8338ZM16.9847 9.91167C16.49 9.91167 16.0889 9.51057 16.0889 9.01585C16.0889 8.52113 16.49 8.12004 16.9847 8.12004C17.4794 8.12004 17.8805 8.52113 17.8805 9.01585C17.8803 9.51057 17.4794 9.91167 16.9847 9.91167Z" fill="#16141B"/>
<circle cx="13" cy="13" r="1" fill="#141219"/>
<path d="M13 0C5.8214 0 0 5.8214 0 13C0 20.1786 5.8214 26 13 26C20.1786 26 26 20.1786 26 13C26 5.8214 20.1786 0 13 0ZM20.4198 16.0776C20.3837 16.8723 20.2574 17.4148 20.0729 17.8897C19.6851 18.8924 18.8924 19.6851 17.8897 20.0729C17.415 20.2574 16.8723 20.3835 16.0778 20.4198C15.2818 20.4561 15.0275 20.4648 13.0002 20.4648C10.9727 20.4648 10.7186 20.4561 9.92238 20.4198C9.12793 20.3835 8.58521 20.2574 8.11052 20.0729C7.61223 19.8854 7.16115 19.5916 6.78822 19.2118C6.40855 18.8391 6.11478 18.3878 5.92732 17.8897C5.74284 17.415 5.61649 16.8723 5.58038 16.0778C5.54369 15.2816 5.53516 15.0273 5.53516 13C5.53516 10.9727 5.54369 10.7184 5.58018 9.92238C5.61629 9.12773 5.74245 8.58521 5.92693 8.11032C6.11438 7.61223 6.40836 7.16095 6.78822 6.78822C7.16095 6.40836 7.61223 6.11458 8.11032 5.92712C8.58521 5.74265 9.12773 5.61649 9.92238 5.58018C10.7184 5.54388 10.9727 5.53516 13 5.53516C15.0273 5.53516 15.2816 5.54388 16.0776 5.58038C16.8723 5.61649 17.4148 5.74265 17.8897 5.92693C18.3878 6.11438 18.8391 6.40836 19.212 6.78822C19.5916 7.16115 19.8856 7.61223 20.0729 8.11032C20.2576 8.58521 20.3837 9.12773 20.42 9.92238C20.4563 10.7184 20.4648 10.9727 20.4648 13C20.4648 15.0273 20.4563 15.2816 20.4198 16.0776Z" fill="#E32A2F"/>
<circle cx="17" cy="9" r="1" fill="#E32A2F"/>
</g>
<defs>
<clipPath id="clip0_1053_4190">
<rect width="26" height="26" fill="white"/>
</clipPath>
</defs>
</svg>
