<svg width="35" height="34" viewBox="0 0 35 34" fill="none" xmlns="http://www.w3.org/2000/svg">
<path d="M15.194 3.15945L8.12489 5.80861C6.49572 6.41778 5.16406 8.34443 5.16406 10.0869V20.6128C5.16406 22.2844 6.26908 24.4803 7.61491 25.4861L13.7066 30.0336C15.7041 31.5353 18.9907 31.5353 20.9882 30.0336L27.0799 25.4861C28.4257 24.4803 29.5307 22.2844 29.5307 20.6128V10.0869C29.5307 8.34443 28.199 6.41778 26.5699 5.80861L19.5007 3.15945C18.2966 2.72029 16.3699 2.72029 15.194 3.15945Z" stroke="white" stroke-width="2" stroke-linecap="round" stroke-linejoin="round"/>
<path d="M17.3342 15.4701C17.2775 15.4701 17.2067 15.4701 17.15 15.4701C15.8184 15.4276 14.7559 14.3226 14.7559 12.9767C14.7559 11.6026 15.875 10.4834 17.2492 10.4834C18.6234 10.4834 19.7426 11.6026 19.7426 12.9767C19.7284 14.3367 18.6659 15.4276 17.3342 15.4701Z" stroke="white" stroke-width="2" stroke-linecap="round" stroke-linejoin="round"/>
<path d="M14.5141 19.4368C13.1541 20.3434 13.1541 21.8309 14.5141 22.7376C16.0583 23.7717 18.5941 23.7717 20.1383 22.7376C21.4983 21.8309 21.4983 20.3434 20.1383 19.4368C18.6083 18.4026 16.0725 18.4026 14.5141 19.4368Z" stroke="white" stroke-width="2" stroke-linecap="round" stroke-linejoin="round"/>
</svg>
