<svg width="35" height="34" viewBox="0 0 35 34" fill="none" xmlns="http://www.w3.org/2000/svg">
<g id="vuesax/linear/security-safe">
<g id="security-safe">
<path id="Vector" d="M29.9556 15.7538C29.9556 22.6813 24.9264 29.1696 18.0556 31.0679C17.5881 31.1954 17.0781 31.1954 16.6106 31.0679C9.73973 29.1696 4.71057 22.6813 4.71057 15.7538V9.53458C4.71057 8.37291 5.58893 7.05542 6.67976 6.61625L14.5706 3.3863C16.3414 2.6638 18.3389 2.6638 20.1097 3.3863L28.0006 6.61625C29.0772 7.05542 29.9698 8.37291 29.9698 9.53458L29.9556 15.7538Z" stroke="white" stroke-width="2.125" stroke-linecap="round" stroke-linejoin="round"/>
<g id="Group">
<path id="Vector_2" d="M17.333 17.708C18.8978 17.708 20.1663 16.4395 20.1663 14.8747C20.1663 13.3098 18.8978 12.0413 17.333 12.0413C15.7682 12.0413 14.4996 13.3098 14.4996 14.8747C14.4996 16.4395 15.7682 17.708 17.333 17.708Z" stroke="white" stroke-width="2.125" stroke-miterlimit="10" stroke-linecap="round" stroke-linejoin="round"/>
<path id="Vector_3" d="M17.333 17.708V21.958" stroke="white" stroke-width="2.125" stroke-miterlimit="10" stroke-linecap="round" stroke-linejoin="round"/>
</g>
</g>
</g>
</svg>
