<svg width="24" height="24" viewBox="0 0 24 24" fill="none" xmlns="http://www.w3.org/2000/svg">
<path d="M20.5 9.5C22 9.5 22 10 22 11V13C22 14 22 14.5 20.5 14.5" stroke="#E32A2F" stroke-width="1.8" stroke-linecap="round" stroke-linejoin="round"/>
<path d="M7.37988 10C7.70988 11.31 7.70988 12.69 7.37988 14" stroke="#E32A2F" stroke-width="1.8" stroke-linecap="round" stroke-linejoin="round"/>
<path d="M10.8799 10C11.2099 11.31 11.2099 12.69 10.8799 14" stroke="#E32A2F" stroke-width="1.8" stroke-linecap="round" stroke-linejoin="round"/>
<path d="M14.3799 10C14.7099 11.31 14.7099 12.69 14.3799 14" stroke="#E32A2F" stroke-width="1.8" stroke-linecap="round" stroke-linejoin="round"/>
<path d="M14 19H8C4 19 3 18 3 14V10C3 6 4 5 8 5H14C18 5 19 6 19 10V14C19 18 18 19 14 19Z" stroke="#E32A2F" stroke-width="1.8" stroke-linecap="round" stroke-linejoin="round"/>
</svg>
