<svg width="24" height="24" viewBox="0 0 24 24" fill="none" xmlns="http://www.w3.org/2000/svg">
<path d="M20.5 9.5C22 9.5 22 10 22 11V13C22 14 22 14.5 20.5 14.5" stroke="#E32A2F" stroke-width="1.8" stroke-linecap="round" stroke-linejoin="round"/>
<path d="M7.38086 10C7.71086 11.31 7.71086 12.69 7.38086 14" stroke="#E32A2F" stroke-width="1.8" stroke-linecap="round" stroke-linejoin="round"/>
<path d="M10.8809 10C11.2109 11.31 11.2109 12.69 10.8809 14" stroke="#E32A2F" stroke-width="1.8" stroke-linecap="round" stroke-linejoin="round"/>
<path d="M14.3809 10C14.7109 11.31 14.7109 12.69 14.3809 14" stroke="#E32A2F" stroke-width="1.8" stroke-linecap="round" stroke-linejoin="round"/>
<path d="M14 19H8C4 19 3 18 3 14V10C3 6 4 5 8 5H14C18 5 19 6 19 10V14C19 18 18 19 14 19Z" stroke="#E32A2F" stroke-width="1.8" stroke-linecap="round" stroke-linejoin="round"/>
</svg>
