<svg width="46" height="46" viewBox="0 0 46 46" fill="none" xmlns="http://www.w3.org/2000/svg">
<path d="M23 28.75C26.1756 28.75 28.75 26.1756 28.75 23C28.75 19.8244 26.1756 17.25 23 17.25C19.8244 17.25 17.25 19.8244 17.25 23C17.25 26.1756 19.8244 28.75 23 28.75Z" stroke="#E32A2F" stroke-width="2" stroke-miterlimit="10" stroke-linecap="round" stroke-linejoin="round"/>
<path d="M3.83325 24.6861V21.3128C3.83325 19.3194 5.46242 17.6711 7.47492 17.6711C10.9441 17.6711 12.3624 15.2178 10.6183 12.2086C9.62159 10.4836 10.2158 8.2411 11.9599 7.24443L15.2758 5.34693C16.7899 4.4461 18.7449 4.98276 19.6458 6.49693L19.8566 6.8611C21.5816 9.87026 24.4183 9.87026 26.1624 6.8611L26.3733 6.49693C27.2741 4.98276 29.2291 4.4461 30.7433 5.34693L34.0591 7.24443C35.8033 8.2411 36.3974 10.4836 35.4008 12.2086C33.6566 15.2178 35.0749 17.6711 38.5441 17.6711C40.5374 17.6711 42.1858 19.3003 42.1858 21.3128V24.6861C42.1858 26.6794 40.5566 28.3278 38.5441 28.3278C35.0749 28.3278 33.6566 30.7811 35.4008 33.7903C36.3974 35.5344 35.8033 37.7578 34.0591 38.7544L30.7433 40.6519C29.2291 41.5528 27.2741 41.0161 26.3733 39.5019L26.1624 39.1378C24.4374 36.1286 21.6008 36.1286 19.8566 39.1378L19.6458 39.5019C18.7449 41.0161 16.7899 41.5528 15.2758 40.6519L11.9599 38.7544C10.2158 37.7578 9.62159 35.5153 10.6183 33.7903C12.3624 30.7811 10.9441 28.3278 7.47492 28.3278C5.46242 28.3278 3.83325 26.6794 3.83325 24.6861Z" stroke="#E32A2F" stroke-width="2" stroke-miterlimit="10" stroke-linecap="round" stroke-linejoin="round"/>
</svg>
