<svg width="30" height="31" viewBox="0 0 30 31" fill="none" xmlns="http://www.w3.org/2000/svg">
<path d="M25.5249 15.9625C26.6124 16.4 27.2874 17.6875 27.0374 18.825L26.5249 21.15C25.6374 25.15 22.4999 28 17.9749 28H12.0249C7.49992 28 4.36242 25.15 3.47492 21.15L2.96242 18.825C2.71242 17.6875 3.38741 16.4 4.47491 15.9625L6.24992 15.25L13.1374 12.4875C14.3374 12.0125 15.6624 12.0125 16.8624 12.4875L23.7499 15.25L25.5249 15.9625Z" stroke="white" stroke-width="2" stroke-linecap="round" stroke-linejoin="round"/>
<path d="M15 28V13" stroke="white" stroke-width="2" stroke-linecap="round" stroke-linejoin="round"/>
<path d="M23.75 10.5V15.25L16.8625 12.4875C15.6625 12.0125 14.3375 12.0125 13.1375 12.4875L6.25 15.25V10.5C6.25 8.4375 7.9375 6.75 10 6.75H20C22.0625 6.75 23.75 8.4375 23.75 10.5Z" stroke="white" stroke-width="2" stroke-linecap="round" stroke-linejoin="round"/>
<path d="M18.125 6.75H11.875V4.25C11.875 3.5625 12.4375 3 13.125 3H16.875C17.5625 3 18.125 3.5625 18.125 4.25V6.75Z" stroke="white" stroke-width="2" stroke-linecap="round" stroke-linejoin="round"/>
</svg>
