<svg width="24" height="24" viewBox="0 0 24 24" fill="none" xmlns="http://www.w3.org/2000/svg">
<path d="M18.5437 18.8753C20.1662 17.2253 21.1654 14.952 21.1654 12.4587C21.1654 7.39866 17.0587 3.29199 11.9987 3.29199C6.9387 3.29199 2.83203 7.39866 2.83203 12.4587C2.83203 14.952 3.82203 17.207 5.43536 18.8662" stroke="#E32A2F" stroke-width="1.8" stroke-miterlimit="10" stroke-linecap="round" stroke-linejoin="round"/>
<path d="M12.1 19.7117C13.2598 19.7117 14.2 18.7715 14.2 17.6117C14.2 16.4519 13.2598 15.5117 12.1 15.5117C10.9402 15.5117 10 16.4519 10 17.6117C10 18.7715 10.9402 19.7117 12.1 19.7117Z" stroke="#E32A2F" stroke-width="1.8" stroke-miterlimit="10" stroke-linecap="round" stroke-linejoin="round"/>
<path d="M13.0698 10.0007C13.0698 9.50363 12.6668 9.10072 12.1698 9.10076C11.6727 9.10079 11.2698 9.50377 11.2698 10.0008L13.0698 10.0007ZM13.0702 15.4512L13.0698 10.0007L11.2698 10.0008L11.2702 15.4514L13.0702 15.4512Z" fill="#E32A2F"/>
</svg>
