<svg width="22" height="22" viewBox="0 0 22 22" fill="none" xmlns="http://www.w3.org/2000/svg">
<path d="M17.5447 17.8753C19.1672 16.2253 20.1663 13.952 20.1663 11.4587C20.1663 6.39866 16.0597 2.29199 10.9997 2.29199C5.93967 2.29199 1.83301 6.39866 1.83301 11.4587C1.83301 13.952 2.823 16.207 4.43634 17.8662" stroke="#E32A2F" stroke-width="1.8" stroke-miterlimit="10" stroke-linecap="round" stroke-linejoin="round"/>
<path d="M11.1 18.7117C12.2598 18.7117 13.2 17.7715 13.2 16.6117C13.2 15.4519 12.2598 14.5117 11.1 14.5117C9.9402 14.5117 9 15.4519 9 16.6117C9 17.7715 9.9402 18.7117 11.1 18.7117Z" stroke="#E32A2F" stroke-width="1.8" stroke-miterlimit="10" stroke-linecap="round" stroke-linejoin="round"/>
<path d="M12.0708 9.00032C12.0708 8.50327 11.6678 8.10035 11.1707 8.10039C10.6737 8.10043 10.2708 8.5034 10.2708 9.00046L12.0708 9.00032ZM12.0712 14.4509L12.0708 9.00032L10.2708 9.00046L10.2712 14.451L12.0712 14.4509Z" fill="#E32A2F"/>
</svg>
