<svg width="46" height="46" viewBox="0 0 46 46" fill="none" xmlns="http://www.w3.org/2000/svg">
<g id="vuesax/linear/speedometer">
<g id="vuesax/linear/speedometer_2">
<g id="speedometer">
<path id="Vector" d="M36.6817 37.3753C40.0742 33.9253 42.1634 29.172 42.1634 23.9587C42.1634 13.3787 33.5767 4.79199 22.9967 4.79199C12.4167 4.79199 3.83008 13.3787 3.83008 23.9587C3.83008 29.172 5.90007 33.887 9.2734 37.3562" stroke="white" stroke-width="2" stroke-miterlimit="10" stroke-linecap="round" stroke-linejoin="round"/>
<path id="Vector_2" d="M23.2093 39.1245C25.6343 39.1245 27.6002 37.1586 27.6002 34.7336C27.6002 32.3085 25.6343 30.3427 23.2093 30.3427C20.7842 30.3427 18.8184 32.3085 18.8184 34.7336C18.8184 37.1586 20.7842 39.1245 23.2093 39.1245Z" stroke="white" stroke-width="2" stroke-miterlimit="10" stroke-linecap="round" stroke-linejoin="round"/>
<path id="Vector 27" d="M24.3546 18.8193C24.3545 18.2671 23.9068 17.8194 23.3545 17.8194C22.8022 17.8195 22.3545 18.2672 22.3546 18.8195L24.3546 18.8193ZM24.3554 30.2159L24.3546 18.8193L22.3546 18.8195L22.3554 30.2161L24.3554 30.2159Z" fill="white"/>
</g>
</g>
</g>
</svg>
