<svg width="22" height="22" viewBox="0 0 22 22" fill="none" xmlns="http://www.w3.org/2000/svg">
<path d="M17.5447 17.8753C19.1672 16.2253 20.1663 13.952 20.1663 11.4587C20.1663 6.39866 16.0597 2.29199 10.9997 2.29199C5.93967 2.29199 1.83301 6.39866 1.83301 11.4587C1.83301 13.952 2.823 16.207 4.43634 17.8662" stroke="#E32A2F" stroke-width="1.8" stroke-miterlimit="10" stroke-linecap="round" stroke-linejoin="round"/>
<path d="M8.04456 12.6399H9.58956V16.2399C9.58956 17.0799 10.0446 17.2499 10.5996 16.6199L14.3846 12.3199C14.8496 11.7949 14.6546 11.3599 13.9496 11.3599H12.4046V7.75995C12.4046 6.91995 11.9496 6.74995 11.3946 7.37995L7.60956 11.6799C7.14956 12.2099 7.34456 12.6399 8.04456 12.6399Z" stroke="#E32A2F" stroke-width="1.8" stroke-miterlimit="10" stroke-linecap="round" stroke-linejoin="round"/>
</svg>
