<svg width="49" height="50" viewBox="0 0 49 50" fill="none" xmlns="http://www.w3.org/2000/svg">
<path d="M21.2598 14.8019L25.4971 16.2143C26.0781 16.4147 26.9596 16.2744 27.4705 15.9238L30.4457 13.7901C32.349 12.4277 33.9117 13.2291 33.9217 15.5832L33.9217 19.5701C33.9217 20.2313 34.3825 21.0727 34.9635 21.4333L37.9988 23.3267C40.3929 24.8192 40.1124 26.6223 37.3777 27.3135L33.5611 28.2852C32.8699 28.4555 32.1486 29.1768 31.9783 29.868L31.0067 33.6846C30.3054 36.4093 28.5124 36.6998 27.0198 34.3057L25.1265 31.2704C24.7759 30.6994 23.9344 30.2386 23.2633 30.2286L19.2764 30.2286C16.9323 30.2286 16.1309 28.6659 17.4833 26.7526L19.6169 23.7774C19.9776 23.2765 20.1078 22.385 19.9074 21.804L18.495 17.5667C17.7137 15.2827 18.9558 14.0405 21.2598 14.8019Z" stroke="white" stroke-width="2" stroke-linecap="round" stroke-linejoin="round"/>
<path d="M13.6471 21.9945L7.63672 28.0049" stroke="white" stroke-width="2" stroke-linecap="round" stroke-linejoin="round"/>
<path d="M24.6673 39.0241L21.6621 42.0293" stroke="white" stroke-width="2" stroke-linecap="round" stroke-linejoin="round"/>
<path d="M15.6502 34.0158L14.6484 35.0176" stroke="white" stroke-width="2" stroke-linecap="round" stroke-linejoin="round"/>
</svg>
