<svg width="258" height="257" viewBox="0 0 258 257" fill="none" xmlns="http://www.w3.org/2000/svg">
<path d="M0 26.2477C52.5619 -2.03576 128.828 0.0337252 128.828 0.0337252C128.828 0.0337252 196.162 -2.03576 258 26.2477C255.252 32.1114 253.534 34.8708 250.099 40.7344C172.802 9.69152 128.828 15.2103 128.828 15.2103C128.828 15.2103 58.0586 15.2103 6.87084 40.7344C5.15313 37.6302 1.71771 30.7317 0 26.2477Z" fill="url(#paint0_linear_943_11758)" fill-opacity="0.25"/>
<path d="M92.4129 55.5661L128.141 257L163.87 55.5661C163.87 55.5661 194.101 51.427 205.438 61.0848C210.248 63.4993 212.309 72.8121 212.309 72.8121C212.309 72.8121 240.136 61.0848 244.945 47.9778C193.071 24.5232 155.281 26.9376 155.281 26.9376L128.141 61.0848L101.689 26.9376C101.689 26.9376 51.5314 26.9376 10.6499 47.9778C23.361 66.2586 45.6912 72.8121 45.6912 72.8121C45.6912 72.8121 44.6606 67.9832 51.5314 61.0848C60.807 53.1516 92.4129 55.5661 92.4129 55.5661Z" fill="url(#paint1_linear_943_11758)" fill-opacity="0.25"/>
<defs>
<linearGradient id="paint0_linear_943_11758" x1="127.798" y1="26.8672" x2="127.798" y2="257" gradientUnits="userSpaceOnUse">
<stop stop-color="white"/>
<stop offset="1" stop-color="white" stop-opacity="0"/>
</linearGradient>
<linearGradient id="paint1_linear_943_11758" x1="127.798" y1="26.8672" x2="127.798" y2="257" gradientUnits="userSpaceOnUse">
<stop stop-color="white"/>
<stop offset="1" stop-color="white" stop-opacity="0"/>
</linearGradient>
</defs>
</svg>
