<svg width="35" height="34" viewBox="0 0 35 34" fill="none" xmlns="http://www.w3.org/2000/svg">
<path d="M12.2051 16.9996L15.6192 20.428L22.4617 13.5713" stroke="white" stroke-width="2" stroke-linecap="round" stroke-linejoin="round"/>
<path d="M15.5626 3.47063C16.5401 2.63479 18.1409 2.63479 19.1326 3.47063L21.3709 5.39729C21.7959 5.76562 22.5892 6.06313 23.1559 6.06313H25.5642C27.0659 6.06313 28.2984 7.29563 28.2984 8.79729V11.2056C28.2984 11.7581 28.5959 12.5656 28.9642 12.9906L30.8909 15.229C31.7267 16.2065 31.7267 17.8073 30.8909 18.799L28.9642 21.0373C28.5959 21.4623 28.2984 22.2556 28.2984 22.8223V25.2306C28.2984 26.7323 27.0659 27.9648 25.5642 27.9648H23.1559C22.6034 27.9648 21.7959 28.2623 21.3709 28.6306L19.1326 30.5573C18.1551 31.3931 16.5542 31.3931 15.5626 30.5573L13.3242 28.6306C12.8992 28.2623 12.1059 27.9648 11.5392 27.9648H9.08841C7.58674 27.9648 6.35424 26.7323 6.35424 25.2306V22.8081C6.35424 22.2556 6.05674 21.4623 5.70258 21.0373L3.79008 18.7848C2.96841 17.8073 2.96841 16.2206 3.79008 15.2431L5.70258 12.9906C6.05674 12.5656 6.35424 11.7723 6.35424 11.2198V8.78312C6.35424 7.28146 7.58674 6.04896 9.08841 6.04896H11.5392C12.0917 6.04896 12.8992 5.75146 13.3242 5.38313L15.5626 3.47063Z" stroke="white" stroke-width="2" stroke-linecap="round" stroke-linejoin="round"/>
</svg>
