<svg width="35" height="34" viewBox="0 0 35 34" fill="none" xmlns="http://www.w3.org/2000/svg">
<g id="vuesax/linear/wallet-money">
<path id="Vector" d="M15.5654 23.8855V26.7614C15.5654 29.198 13.2987 31.1672 10.5078 31.1672C7.71701 31.1672 5.43616 29.198 5.43616 26.7614V23.8855C5.43616 26.3222 7.70285 28.0505 10.5078 28.0505C13.2987 28.0505 15.5654 26.308 15.5654 23.8855Z" stroke="white" stroke-width="2.125" stroke-linecap="round" stroke-linejoin="round"/>
<path id="Vector_2" d="M15.5629 19.9888C15.5629 20.6971 15.3645 21.3488 15.0245 21.9154C14.1887 23.2896 12.4745 24.1538 10.4912 24.1538C8.50783 24.1538 6.79364 23.2754 5.95781 21.9154C5.61781 21.3488 5.41956 20.6971 5.41956 19.9888C5.41956 18.7705 5.98619 17.6796 6.89286 16.8863C7.81369 16.0788 9.07448 15.5972 10.477 15.5972C11.8795 15.5972 13.1404 16.093 14.0612 16.8863C14.9962 17.6655 15.5629 18.7705 15.5629 19.9888Z" stroke="white" stroke-width="2.125" stroke-linecap="round" stroke-linejoin="round"/>
<path id="Vector_3" d="M15.5654 19.9885V23.8843C15.5654 26.321 13.2987 28.0493 10.5078 28.0493C7.71701 28.0493 5.43616 26.3068 5.43616 23.8843V19.9885C5.43616 17.5518 7.70285 15.5826 10.5078 15.5826C11.9103 15.5826 13.1712 16.0784 14.0921 16.8718C14.9987 17.6651 15.5654 18.7701 15.5654 19.9885Z" stroke="white" stroke-width="2.125" stroke-linecap="round" stroke-linejoin="round"/>
<path id="Vector_4" d="M31.4995 15.5406V18.4591C31.4995 19.2382 30.8762 19.8757 30.0829 19.904H27.3062C25.7762 19.904 24.3737 18.7848 24.2462 17.2548C24.1612 16.3623 24.5012 15.5265 25.0962 14.9457C25.6203 14.4073 26.3428 14.0957 27.1362 14.0957H30.0829C30.8762 14.124 31.4995 14.7615 31.4995 15.5406Z" stroke="white" stroke-width="2.125" stroke-linecap="round" stroke-linejoin="round"/>
<path id="Vector_5" d="M3.16589 14.8743V12.041C3.16589 8.18764 5.48923 5.49597 9.10173 5.04264C9.47006 4.98597 9.85256 4.95764 10.2492 4.95764H22.9992C23.3676 4.95764 23.7217 4.97179 24.0617 5.02846C27.7167 5.45346 30.0826 8.15931 30.0826 12.041V14.0952H27.1359C26.3425 14.0952 25.62 14.4068 25.0959 14.9451C24.5009 15.526 24.1609 16.3618 24.2459 17.2543C24.3734 18.7843 25.7759 19.9035 27.3059 19.9035H30.0826V21.9576C30.0826 26.2076 27.2492 29.041 22.9992 29.041H19.4576" stroke="white" stroke-width="2.125" stroke-linecap="round" stroke-linejoin="round"/>
</g>
</svg>
